:FULLY-SPECIFIED
:FORCE-ALL-JOINTS-BE-3DOF
:DEGREES
3058
root -1.58731 15.946 -34.1902 1087.69 2.4641 1.70624
lfemur -35.1027 5.05361 -2.27424
ltibia 56.6565 -0 0
lfoot -9.63234 -2.29408 0.0963947
ltoes -44.8015 0 0
rfemur -37.47 -5.29397 25.4931
rtibia 61.4136 -0 0
rfoot -19.9519 -27.3912 0.00580655
rtoes -4.00784 0 0
lowerback 12.8795 0.493811 -2.02793
upperback -1.02308 0.475529 1.60874
thorax -8.37357 0.363227 2.77118
lowerneck 4.05942 -8.88123 -12.3564
upperneck -3.60522 -12.211 10.1102
head -0.331757 -6.17191 5.029
lclavicle -6.42414e-15 7.82697e-16 2.96386e-33
lhumerus 17.6812 -42.2227 85.6317
lradius 70.2639 -0 0
lwrist -0.879646 0 0
lhand -24.8483 34.6775 0.0382793
lfingers 7.12502 -0 0
lthumb 3.26873 65.9782 0.0212507
rclavicle -6.59231e-15 5.21585e-16 1.05588e-30
rhumerus 25.6201 45.276 -45.2596
rradius 105.491 -0 0
rwrist -41.017 0 0
rhand -7.12472 -28.3784 0.00577989
rfingers 7.12502 -0 0
rthumb 18.8744 -62.0112 0.0226153
3059
root -1.54877 15.9467 -34.1682 1087.59 2.9519 1.71828
lfemur -34.8469 4.85691 -2.44329
ltibia 56.1737 -0 0
lfoot -10.1471 -2.50654 0.0935144
ltoes -45.2385 0 0
rfemur -37.1282 -5.21998 25.2721
rtibia 61.413 -0 0
rfoot -19.9037 -27.1393 0.00353306
rtoes -4.22166 0 0
lowerback 12.8299 0.41164 -1.93538
upperback -1.01466 0.377035 1.55831
thorax -8.3283 0.309334 2.68387
lowerneck 3.92246 -8.70378 -12.1656
upperneck -3.51968 -11.9539 9.99686
head -0.331891 -6.04083 4.96528
lclavicle -6.74677e-15 7.91948e-16 7.69196e-34
lhumerus 16.2402 -42.5169 86.2151
lradius 70.59 -0 0
lwrist -0.0509603 0 0
lhand -24.5365 34.9262 0.0313812
lfingers 7.12502 -0 0
lthumb 3.40359 66.1807 0.0126075
rclavicle -8.24307e-15 1.92555e-15 8.14446e-31
rhumerus 24.5462 45.6514 -46.0466
rradius 105.568 0 0
rwrist -40.5797 0 0
rhand -7.06328 -28.1509 0.00760735
rfingers 7.12502 -0 0
rthumb 18.7886 -62.3063 0.0204981
3060
root -1.5088 15.9498 -34.1449 1087.47 3.47583 1.83022
lfemur -34.5807 4.65347 -2.61971
ltibia 55.7041 -0 0
lfoot -10.6525 -2.71515 0.0888288
ltoes -45.6134 0 0
rfemur -36.77 -5.14099 25.0408
rtibia 61.4123 -0 0
rfoot -19.8674 -26.9491 0.00167677
rtoes -4.41024 0 0
lowerback 12.7869 0.33833 -1.92418
upperback -1.00768 0.277606 1.50822
thorax -8.2894 0.258805 2.64327
lowerneck 3.7991 -8.5415 -12.0987
upperneck -3.40522 -11.7252 9.95279
head -0.31024 -5.9245 4.93925
lclavicle -6.85807e-15 7.95139e-16 0
lhumerus 14.7314 -42.8111 86.8347
lradius 70.8897 -0 0
lwrist 0.757836 0 0
lhand -24.2558 35.15 0.0240116
lfingers 7.12502 -0 0
lthumb 3.50397 66.3315 0.00586362
rclavicle -9.68061e-15 3.14818e-15 5.71246e-31
rhumerus 23.2665 46.0788 -46.9902
rradius 105.594 -0 0
rwrist -40.1934 0 0
rhand -6.9948 -27.8973 0.00935643
rfingers 7.12502 -0 0
rthumb 18.7071 -62.5869 0.0180745
3061
root -1.47241 15.9537 -34.1229 1087.36 4.01931 1.86819
lfemur -34.3073 4.44587 -2.80139
ltibia 55.2522 -0 0
lfoot -11.1441 -2.91797 0.0825068
ltoes -45.9185 0 0
rfemur -36.3994 -5.05763 24.8017
rtibia 61.4118 -0 0
rfoot -19.8444 -26.829 0.000441801
rtoes -4.57084 0 0
lowerback 12.7428 0.274619 -1.88107
upperback -1.01374 0.197986 1.48254
thorax -8.26542 0.217409 2.60675
lowerneck 3.75661 -8.40825 -11.9416
upperneck -3.32943 -11.5401 9.8082
head -0.319514 -5.83039 4.87393
lclavicle -6.8129e-15 8.29182e-16 -2.02399e-33
lhumerus 13.1683 -43.1009 87.4857
lradius 71.1578 -0 0
lwrist 1.53687 0 0
lhand -24.0122 35.3442 0.0167279
lfingers 7.12502 -0 0
lthumb 3.5666 66.4256 0.00152173
rclavicle -1.08662e-14 4.15651e-15 3.47593e-31
rhumerus 21.7918 46.5453 -48.0852
rradius 105.668 -0 0
rwrist -39.8638 0 0
rhand -6.92056 -27.6225 0.0109101
rfingers 7.12502 -0 0
rthumb 18.6306 -62.8502 0.0154372
3062
root -1.43551 15.9605 -34.1019 1087.25 4.54277 1.84444
lfemur -34.0301 4.23667 -2.98621
ltibia 54.8224 -0 0
lfoot -11.6172 -3.11316 0.0747779
ltoes -46.1461 0 0
rfemur -36.0199 -4.9706 24.5573
rtibia 61.4113 -0 0
rfoot -19.8364 -26.7871 0
rtoes -4.70063 0 0
lowerback 12.7334 0.20434 -1.74614
upperback -1.0482 0.123445 1.45754
thorax -8.2921 0.175343 2.51829
lowerneck 3.79768 -8.25758 -11.8708
upperneck -3.23993 -11.3435 9.76661
head -0.327637 -5.73359 4.85602
lclavicle -6.6833e-15 9.26846e-16 -7.68155e-33
lhumerus 11.5646 -43.3824 88.1626
lradius 71.389 -0 0
lwrist 2.27605 0 0
lhand -23.8119 35.5039 0.0101221
lfingers 7.12502 -0 0
lthumb 3.5882 -653.542 0
rclavicle -1.1761e-14 4.91756e-15 1.6497e-31
rhumerus 20.1331 47.0377 -49.3257
rradius 105.787 -0 0
rwrist -39.5971 0 0
rhand -6.84184 -27.331 0.0121684
rfingers 7.12502 -0 0
rthumb 18.5599 -63.0933 0.0126902
